<?xml version="1.0" standalone="no"?>
<!DOCTYPE svg PUBLIC "-//W3C//DTD SVG 20010904//EN"
 "http://www.w3.org/TR/2001/REC-SVG-20010904/DTD/svg10.dtd">
<svg version="1.0" xmlns="http://www.w3.org/2000/svg"
 width="728.000000pt" height="728.000000pt" viewBox="0 0 728.000000 728.000000"
 preserveAspectRatio="xMidYMid meet">
<metadata>
Created by potrace 1.14, written by Peter Selinger 2001-2017
</metadata>
<g transform="translate(0.000000,728.000000) scale(0.100000,-0.100000)"
fill="#000000" stroke="none">
<path d="M0 3640 l0 -2920 3640 0 3640 0 0 2920 0 2920 -3640 0 -3640 0 0
-2920z m3820 2010 c11 -22 16 -40 11 -40 -5 0 -12 8 -16 18 -3 9 -12 26 -20
36 -14 19 -16 19 -34 2 -11 -10 -37 -24 -58 -32 -21 -7 -30 -13 -20 -14 10 0
28 5 39 11 13 7 24 7 30 1 15 -15 -20 -42 -57 -42 -19 0 -37 -4 -40 -10 -3 -5
1 -10 10 -10 9 0 18 -12 22 -30 5 -28 8 -30 44 -28 l38 3 -27 30 c-15 16 -19
23 -9 16 13 -10 20 -11 31 -2 11 9 16 6 24 -19 6 -16 18 -30 26 -30 8 0 22 -3
32 -7 14 -5 16 -3 11 11 -4 10 -3 15 3 11 6 -3 10 -11 10 -17 0 -6 12 -35 26
-65 21 -42 29 -51 40 -42 24 20 77 6 107 -28 27 -31 30 -32 53 -17 21 14 24
14 24 2 0 -11 7 -14 25 -10 29 5 31 14 10 32 -17 14 -21 80 -5 80 6 0 10 -7
10 -16 0 -19 32 -11 74 18 l29 21 -7 -37 c-5 -28 -3 -38 9 -42 21 -9 19 -30
-6 -48 -15 -10 -18 -19 -12 -30 7 -13 13 -12 41 10 31 25 32 27 15 40 -17 13
-16 16 17 44 86 75 191 110 233 78 16 -12 14 -13 -22 -10 -23 2 -52 1 -65 -2
-44 -11 -118 -106 -82 -106 15 0 48 -78 40 -91 -8 -13 -38 -11 -52 3 -9 9 -18
9 -37 0 -31 -14 -33 -32 -2 -32 12 0 32 -3 44 -6 15 -4 27 1 39 15 24 28 34
26 34 -4 0 -23 3 -25 37 -22 32 4 41 10 60 46 13 25 24 37 29 30 3 -6 2 -14
-3 -18 -10 -7 -53 -133 -53 -156 0 -28 23 -26 55 5 34 33 60 33 50 -1 -4 -11
-2 -19 4 -19 6 0 11 -7 11 -16 0 -13 3 -14 14 -5 12 10 19 2 40 -45 14 -31 26
-65 26 -76 0 -30 29 -78 48 -78 9 0 41 -21 70 -46 39 -35 52 -53 52 -74 0 -15
7 -33 15 -40 8 -6 14 -15 13 -18 -3 -30 4 -43 21 -37 11 3 21 0 24 -8 3 -8 19
-17 35 -20 33 -7 48 -32 31 -53 -8 -10 -7 -17 5 -30 15 -15 15 -18 -9 -40 -14
-12 -25 -33 -25 -46 0 -34 -11 -68 -20 -63 -4 3 -4 21 0 41 8 36 8 36 -21 32
-16 -3 -29 -1 -29 3 0 8 -59 31 -61 23 -1 -2 -2 -8 -3 -13 -3 -23 -16 -22 -16
2 0 14 -6 27 -12 29 -15 5 -81 -59 -73 -71 2 -5 -2 -14 -10 -21 -10 -9 -12
-18 -4 -38 5 -14 7 -38 4 -54 l-7 -29 44 7 c23 4 49 11 56 17 15 11 17 10 26
-20 5 -17 -3 -32 -35 -67 -24 -25 -49 -46 -58 -46 -11 0 -9 6 7 23 30 31 28
34 -15 33 -32 -1 -38 2 -41 22 -3 21 -7 22 -60 18 -31 -3 -79 -5 -106 -5 -48
-1 -49 -1 -32 -20 17 -19 17 -21 -3 -43 -12 -12 -19 -28 -16 -36 3 -7 -2 -23
-10 -34 -19 -28 -3 -58 30 -58 28 0 31 -6 11 -25 -11 -12 -17 -11 -37 3 -13 9
-27 20 -31 26 -6 9 -136 11 -145 2 -2 -2 15 -15 37 -30 22 -15 38 -31 35 -35
-7 -12 -82 25 -94 46 -8 16 -11 15 -20 -10 -14 -36 -14 -80 -1 -72 13 8 13
-21 0 -46 -14 -25 -46 -24 -60 1 -15 27 -38 22 -79 -17 -31 -31 -60 -45 -46
-23 17 27 -106 -16 -166 -58 -65 -46 -71 -63 -27 -83 22 -9 42 -30 60 -64 25
-47 26 -52 10 -62 -14 -8 -18 -7 -19 6 -1 9 -5 31 -9 49 -10 49 -74 86 -74 43
0 -19 -52 -71 -71 -71 -5 0 -9 -7 -9 -16 0 -9 -9 -18 -19 -21 -20 -5 -44 -46
-57 -97 -7 -29 -7 -29 -19 -6 -10 19 -13 20 -18 6 -4 -9 -12 -16 -19 -16 -7 0
-24 -16 -38 -35 -14 -20 -31 -32 -40 -30 -22 6 -48 -17 -55 -51 -12 -56 -48
-113 -79 -124 -39 -13 -96 -58 -96 -74 0 -7 20 -21 45 -30 35 -14 47 -25 57
-52 14 -38 23 -41 72 -18 31 15 33 20 25 41 -10 28 -12 87 -2 96 3 4 12 2 20
-4 10 -9 13 -7 13 10 0 11 4 21 9 21 4 0 11 -28 14 -62 2 -35 6 -70 8 -78 3
-9 -5 -16 -20 -18 -13 -2 -30 -9 -37 -15 -34 -31 -44 -37 -57 -37 -8 0 -20 -7
-27 -15 -15 -19 -42 -20 -38 -2 4 17 -53 66 -81 72 -10 2 -33 11 -50 19 -17 9
-31 12 -31 7 0 -5 9 -11 19 -14 11 -2 31 -23 45 -46 29 -45 33 -59 12 -42 -20
17 -31 -127 -11 -149 8 -9 12 -20 8 -23 -12 -12 -22 -7 -28 14 -7 21 -7 21
-31 -2 -21 -19 -28 -21 -42 -11 -9 7 -27 16 -39 22 -13 5 -23 18 -23 28 0 10
-6 26 -12 35 -11 14 -12 2 -8 -65 6 -96 -7 -206 -22 -173 -6 16 -7 13 -5 -12
2 -18 0 -30 -5 -27 -4 3 -8 -7 -8 -21 0 -15 4 -24 10 -20 6 4 10 -12 10 -39 0
-35 4 -46 15 -46 26 0 92 -38 109 -62 17 -24 13 -39 -6 -20 -7 7 -18 12 -25
12 -6 0 -1 -11 13 -25 14 -14 30 -25 37 -25 8 0 7 3 -2 9 -9 6 3 9 37 9 46 1
54 -2 67 -26 12 -22 14 -24 15 -8 0 27 12 13 50 -62 18 -35 40 -66 49 -70 9
-3 20 -11 24 -19 4 -7 25 -13 47 -13 21 0 41 -4 44 -9 3 -5 19 -11 36 -13 26
-4 30 -1 30 19 0 13 6 23 14 23 19 0 27 37 14 66 -8 18 -17 23 -32 19 -19 -5
-19 -5 -3 5 9 6 14 16 11 22 -5 7 0 9 15 5 18 -4 21 -2 16 14 -4 11 -2 19 4
19 6 0 11 -6 11 -14 0 -18 38 -28 42 -10 2 9 8 10 17 5 17 -11 6 -31 -18 -31
-13 0 -20 -10 -25 -33 -3 -17 -8 -43 -12 -57 -4 -21 -2 -26 16 -27 11 -1 24 5
27 13 6 16 103 20 103 4 0 -5 14 -10 30 -10 17 0 30 5 30 10 0 6 7 10 15 10
18 0 19 12 3 28 -9 9 -9 12 3 13 7 1 3 4 -11 8 -14 4 -30 4 -37 -1 -6 -5 -24
-8 -40 -6 -25 4 -24 5 17 16 96 27 121 51 53 53 -31 0 -34 2 -18 9 18 8 18 9
2 9 -11 1 -17 7 -14 14 2 6 14 11 26 10 14 -2 20 1 15 8 -4 8 0 9 15 4 17 -5
20 -3 14 10 -4 12 12 5 49 -19 37 -25 60 -34 73 -30 12 5 16 4 12 -3 -13 -20
43 -46 87 -40 27 4 47 1 60 -8 10 -8 23 -12 27 -9 5 3 9 -2 9 -11 0 -13 5 -12
31 7 24 18 32 20 38 9 12 -19 33 -4 26 18 -3 10 3 28 15 41 11 13 20 29 20 37
0 7 11 18 24 24 13 6 27 20 29 30 3 11 12 19 21 19 9 0 16 5 16 10 0 6 7 10
15 10 8 0 36 26 61 59 43 55 77 81 109 81 8 0 19 9 25 20 14 25 30 26 30 1 0
-17 3 -18 25 -8 14 7 28 20 31 29 3 9 14 20 25 23 10 4 24 16 30 27 8 15 8 19
0 14 -6 -4 -14 0 -17 9 -9 22 24 55 54 55 13 0 36 8 50 19 l27 19 2 -42 c2
-22 9 -45 16 -51 20 -16 9 -112 -19 -156 -32 -51 -39 -86 -23 -105 11 -14 10
-19 -11 -35 -47 -37 -66 -54 -83 -78 -22 -32 -34 -19 -19 21 6 18 11 32 9 33
-1 1 -16 -2 -33 -6 -18 -5 -44 -25 -60 -46 -19 -26 -23 -35 -11 -30 9 3 17 3
17 -2 0 -5 -9 -11 -19 -14 -14 -3 -18 -11 -14 -26 3 -14 0 -23 -11 -27 -9 -3
-16 -12 -16 -20 0 -8 -18 -27 -40 -43 -21 -15 -38 -30 -36 -32 3 -2 -11 -4
-29 -5 -18 0 -45 -10 -60 -22 -15 -12 -38 -22 -50 -22 -13 0 -33 -9 -46 -21
-17 -15 -19 -19 -6 -15 9 3 17 1 17 -4 0 -6 3 -9 8 -9 15 3 55 -1 51 -5 -11
-10 -89 -15 -89 -5 0 6 -4 7 -10 4 -12 -8 10 -45 27 -45 18 0 27 -45 13 -70
-10 -18 -18 -21 -53 -16 -23 3 -34 3 -24 0 33 -10 17 -24 -28 -24 -29 0 -64 9
-95 25 -59 30 -59 30 -53 5 3 -12 -5 -28 -23 -46 -26 -23 -34 -25 -81 -20 -29
3 -63 11 -77 17 -35 16 -55 6 -49 -25 8 -38 -18 -42 -70 -12 -24 14 -54 26
-66 26 -23 0 -69 -25 -88 -50 -8 -9 -12 -11 -13 -3 0 6 5 15 11 19 12 7 -26
44 -75 70 -34 19 -65 13 -126 -26 -25 -15 -62 -33 -82 -40 -21 -6 -38 -16 -38
-21 0 -5 -9 -9 -20 -9 -11 0 -29 -5 -39 -11 -15 -10 -28 -5 -79 30 -34 23 -70
44 -79 48 -10 3 -35 21 -56 40 -39 35 -65 40 -99 22 -18 -9 -26 -4 -68 40 -30
32 -60 53 -78 57 -17 4 -33 12 -36 20 -3 8 -16 14 -29 14 -25 0 -149 35 -182
51 -29 15 -77 87 -62 92 7 3 4 8 -8 12 -58 20 -64 25 -75 67 -7 24 -21 53 -33
65 -12 11 -33 35 -46 52 -13 17 -31 31 -41 31 -19 0 -60 48 -60 69 0 6 -14 11
-31 11 -42 0 -66 15 -85 53 -24 45 -43 124 -33 134 4 4 4 26 -1 48 -5 22 -10
58 -10 81 0 22 -3 44 -7 47 -6 7 -33 -37 -33 -53 0 -5 -5 -21 -11 -37 -7 -20
-12 -24 -18 -14 -7 10 -11 8 -16 -10 -5 -15 -3 -25 4 -27 9 -3 7 -11 -5 -29
-10 -17 -14 -36 -10 -57 5 -29 5 -30 -9 -12 -8 11 -15 38 -15 60 -1 33 -3 38
-11 23 -5 -9 -8 -21 -5 -26 3 -5 -8 -11 -24 -13 -17 -3 -30 -3 -30 -2 0 1 -2
9 -6 17 -3 10 4 16 25 20 25 5 31 12 31 32 0 16 -6 25 -15 25 -19 0 -19 24 1
213 14 139 14 150 -2 168 -16 18 -15 19 20 34 20 8 36 19 36 24 0 15 -29 66
-37 64 -4 -2 -8 7 -8 20 0 17 -6 22 -28 22 -30 0 -57 26 -57 56 0 10 -11 19
-30 23 -24 4 -30 11 -30 30 0 14 6 29 13 33 8 4 17 16 20 26 4 10 11 16 16 12
18 -10 22 15 7 37 -25 35 -20 96 15 166 17 35 33 61 36 59 2 -3 -7 -30 -21
-60 -26 -54 -34 -111 -17 -121 5 -4 7 3 4 14 -3 11 -1 20 5 20 6 0 14 10 18
23 4 12 18 46 31 75 14 31 21 61 18 72 -5 15 0 22 19 30 14 5 26 12 26 14 0 3
-7 3 -15 0 -8 -4 -15 -4 -15 -1 0 8 24 51 48 84 15 21 18 33 10 35 -8 3 -5 15
11 36 21 30 22 36 10 80 -6 27 -9 65 -5 85 10 53 78 148 152 213 40 35 63 63
60 71 -3 8 -2 11 4 8 5 -3 14 5 21 17 7 13 16 26 21 29 5 3 11 15 12 25 2 10
8 18 14 17 5 -1 18 7 28 19 19 21 19 21 -4 9 -20 -11 -18 -6 12 36 19 26 44
58 56 71 22 23 14 31 -10 10 -8 -7 -7 -4 3 8 9 11 17 25 17 31 0 15 51 47 71
46 16 -2 69 46 72 63 1 5 7 9 13 9 6 0 18 8 27 17 16 16 15 17 -10 20 -23 2
-29 8 -31 36 -4 37 -3 37 -67 17 -27 -8 -51 -12 -53 -10 -6 5 58 31 99 40 19
4 42 17 51 28 15 19 18 20 18 5 0 -22 17 -23 66 -2 76 32 131 86 63 62 -54
-19 -41 -1 19 25 33 14 68 37 79 51 12 14 27 26 35 26 8 0 36 11 61 25 27 14
49 20 52 15 10 -16 47 -11 61 8 7 9 14 30 14 45 l0 29 30 -30 c41 -41 83 -44
172 -11 175 64 212 73 229 53 6 -8 20 -14 30 -14 22 0 34 -16 17 -23 -9 -4 -9
-6 -1 -6 6 -1 18 5 25 12 8 6 27 20 43 29 64 36 59 67 -17 106 -36 18 -64 24
-127 25 -70 2 -81 4 -81 20 0 13 8 17 37 17 24 0 45 8 60 22 13 12 23 16 23
10 0 -7 9 -12 20 -12 21 0 28 24 10 35 -19 12 -10 25 18 25 15 0 48 11 72 24
64 34 77 32 100 -14z m393 -112 c-13 -6 -23 -20 -23 -32 0 -17 -2 -18 -10 -6
-15 23 -12 38 8 43 32 9 47 6 25 -5z m-265 -76 c3 -9 -2 -13 -14 -10 -9 1 -19
9 -22 16 -3 9 2 13 14 10 9 -1 19 -9 22 -16z m761 -3 c-16 -10 -23 -4 -14 10
3 6 11 8 17 5 6 -4 5 -9 -3 -15z m-182 -11 c7 -9 4 -18 -8 -30 -15 -14 -20
-14 -35 -3 -13 9 -26 10 -42 4 -35 -14 -16 10 22 27 39 17 51 17 63 2z m177
-59 c10 -52 6 -66 -9 -30 -17 38 -19 61 -6 61 5 0 11 -14 15 -31z m86 -78 c-1
-13 -29 45 -29 59 0 8 6 0 14 -19 8 -18 15 -36 15 -40z m-279 6 c-16 -16 -26
0 -10 19 9 11 15 12 17 4 2 -6 -1 -17 -7 -23z m177 -15 c2 -18 -1 -32 -6 -32
-12 0 -22 24 -22 52 0 32 25 15 28 -20z m262 -527 c-7 -8 -18 -15 -24 -15 -8
0 -8 3 0 8 6 4 14 16 18 27 6 13 10 16 13 7 3 -7 -1 -19 -7 -27z m-29 -320
c-16 -35 -31 -46 -31 -22 0 16 28 57 39 57 5 0 1 -16 -8 -35z m36 -104 c-8
-36 15 -48 49 -26 29 19 30 9 4 -25 -15 -20 -21 -23 -31 -12 -30 29 -69 9 -69
-35 0 -14 3 -14 20 2 30 27 24 3 -10 -40 -16 -20 -32 -46 -36 -58 -4 -11 -16
-29 -28 -40 -19 -17 -19 -18 -2 -13 17 6 17 4 5 -14 -31 -47 -109 -67 -93 -25
4 9 13 14 20 11 21 -8 44 4 44 23 0 9 9 33 20 54 22 40 27 87 9 87 -7 0 -5 9
5 23 9 12 23 39 32 60 14 32 36 52 63 56 2 1 1 -12 -2 -28z m-203 -144 c-2 -7
-14 -18 -25 -25 -19 -12 -20 -12 -3 13 17 26 37 35 28 12z m46 -34 c0 -5 -9
-21 -20 -38 -15 -22 -20 -25 -20 -12 0 23 18 57 30 57 6 0 10 -3 10 -7z m-180
-13 c0 -12 -8 -12 -35 0 -18 8 -17 9 8 9 15 1 27 -3 27 -9z m90 -24 c0 -3 -4
-8 -10 -11 -5 -3 -10 -1 -10 4 0 6 5 11 10 11 6 0 10 -2 10 -4z m-195 -85 l40
-9 -35 0 c-19 0 -48 4 -65 8 -27 7 -28 8 -5 8 14 1 43 -3 65 -7z m-717 -537
c32 -9 27 -19 -18 -37 -29 -11 -40 -21 -40 -36 0 -12 -4 -21 -10 -21 -14 0
-13 43 2 58 9 9 9 12 0 12 -21 0 -13 18 11 23 12 2 24 5 27 6 3 0 15 -2 28 -5z
m-1979 -170 c18 -20 30 -39 26 -42 -6 -7 -72 55 -87 81 -8 16 -7 17 10 8 11
-6 34 -27 51 -47z m116 19 c9 4 14 3 10 -3 -3 -6 -13 -10 -21 -10 -8 0 -14 -4
-14 -10 0 -5 -7 -7 -15 -4 -11 5 -12 10 -2 24 7 13 14 15 18 8 4 -6 14 -8 24
-5z m38 -44 c6 -24 -4 -24 -32 -1 l-22 17 25 1 c16 1 26 -4 29 -17z m19 -131
c-7 -7 -12 -8 -12 -2 0 14 12 26 19 19 2 -3 -1 -11 -7 -17z m2873 -38 c3 -5 1
-10 -4 -10 -6 0 -11 5 -11 10 0 6 2 10 4 10 3 0 8 -4 11 -10z m151 -72 c-8
-13 -16 -27 -16 -33 -1 -5 -6 -17 -12 -25 -6 -11 -7 -6 -3 15 4 17 14 38 22
48 22 24 26 21 9 -5z m124 -2 c-19 -17 -100 -30 -100 -16 0 5 15 10 33 10 17
0 39 5 47 10 23 15 36 12 20 -4z m-1651 -83 c-28 -32 -39 -38 -76 -39 -36 -1
-41 1 -32 12 6 8 17 13 23 13 15 -3 56 16 86 40 37 30 37 17 -1 -26z m1413 3
c-9 -29 -7 -35 6 -38 20 -4 72 13 72 24 0 13 37 9 47 -4 6 -7 13 -22 17 -32 6
-19 6 -19 -12 -3 -29 26 -59 21 -77 -13 -9 -16 -22 -30 -30 -30 -18 0 -19 12
-3 28 14 14 5 16 -20 3 -23 -13 -84 -41 -89 -41 -13 0 2 31 27 55 17 16 30 33
30 37 0 13 32 59 37 54 2 -2 0 -20 -5 -40z m-276 -134 c-8 -16 -23 -35 -32
-43 -14 -11 -12 -4 6 29 26 46 49 59 26 14z m204 -26 c0 -5 -7 -3 -15 4 -8 7
-15 20 -15 28 0 13 3 12 15 -4 8 -10 15 -23 15 -28z m-2780 -56 c0 -5 -4 -10
-10 -10 -5 0 -10 5 -10 10 0 6 5 10 10 10 6 0 10 -4 10 -10z m3018 -180 c10
-17 10 -20 -3 -20 -8 0 -15 2 -15 4 0 2 -3 11 -6 20 -9 23 9 20 24 -4z m-1644
-99 c-3 -3 -9 1 -14 9 -6 8 -10 10 -10 4 0 -7 -11 -9 -25 -6 -27 5 -35 22 -10
22 8 0 15 5 15 12 0 6 11 1 25 -12 14 -13 22 -26 19 -29z m286 20 c0 -13 -75
-38 -135 -46 -67 -9 -55 0 18 14 32 6 70 17 85 25 15 8 28 14 30 15 1 1 2 -3
2 -8z m200 -1 c0 -5 -4 -10 -9 -10 -6 0 -13 5 -16 10 -3 6 1 10 9 10 9 0 16
-4 16 -10z m905 -71 c-13 -24 -19 -28 -25 -18 -9 14 5 49 24 61 18 12 18 -8 1
-43z m-906 7 c-10 -9 -79 -14 -79 -5 0 5 19 9 42 9 23 0 39 -2 37 -4z m-328
-33 c13 -15 12 -15 -11 -3 -34 17 -36 20 -18 20 9 0 22 -7 29 -17z m344 -93
c3 -6 -1 -7 -9 -4 -18 7 -21 14 -7 14 6 0 13 -4 16 -10z m653 -105 c-2 -1 -14
-8 -28 -15 l-25 -13 20 20 c11 11 24 18 28 16 5 -3 7 -6 5 -8z m-1741 -267
c-3 -8 -6 -5 -6 6 -1 11 2 17 5 13 3 -3 4 -12 1 -19z m1207 -19 c-3 -5 -10 -7
-15 -3 -5 3 -7 10 -3 15 3 5 10 7 15 3 5 -3 7 -10 3 -15z m-1419 -231 c8 -12
12 -24 10 -27 -7 -6 -63 48 -77 73 -9 17 -7 17 21 -3 17 -12 37 -32 46 -43z"/>
<path d="M3590 5570 c0 -5 5 -10 11 -10 5 0 7 5 4 10 -3 6 -8 10 -11 10 -2 0
-4 -4 -4 -10z"/>
<path d="M3850 5439 c0 -5 5 -7 10 -4 6 3 10 8 10 11 0 2 -4 4 -10 4 -5 0 -10
-5 -10 -11z"/>
<path d="M3790 5424 c0 -8 5 -12 10 -9 6 4 8 11 5 16 -9 14 -15 11 -15 -7z"/>
<path d="M4178 5413 c-22 -5 -23 -17 -3 -33 12 -10 20 -8 41 9 15 12 22 21 16
21 -6 0 -16 2 -24 4 -7 2 -21 2 -30 -1z"/>
<path d="M4310 5325 c0 -8 4 -15 8 -15 5 0 9 7 9 15 0 8 -4 15 -9 15 -4 0 -8
-7 -8 -15z"/>
<path d="M3235 5300 c4 -6 11 -8 16 -5 14 9 11 15 -7 15 -8 0 -12 -5 -9 -10z"/>
<path d="M3035 5251 c-3 -5 -1 -12 5 -16 5 -3 10 1 10 9 0 18 -6 21 -15 7z"/>
<path d="M2937 5199 c-32 -22 -57 -43 -57 -46 0 -7 111 55 130 73 12 12 12 14
-1 14 -9 0 -41 -18 -72 -41z"/>
<path d="M3557 5143 c-9 -2 -15 -8 -13 -12 3 -4 -11 -23 -31 -42 -32 -30 -35
-31 -30 -11 5 22 -6 31 -17 13 -3 -5 -23 -12 -43 -16 -46 -8 -63 -21 -63 -48
0 -29 -9 -16 -12 16 -3 30 -18 38 -18 10 0 -14 -2 -15 -9 -4 -7 11 -15 11 -45
1 -33 -11 -41 -20 -37 -43 1 -5 -3 -6 -8 -3 -5 4 -17 -18 -26 -46 -10 -29 -25
-64 -34 -78 -9 -14 -21 -38 -28 -55 -7 -19 -12 -23 -12 -12 -1 10 5 30 13 45
8 15 12 39 9 54 l-5 27 -28 -27 c-19 -19 -24 -30 -16 -35 7 -6 5 -7 -6 -4 -9
3 -24 -3 -34 -14 -19 -21 -40 -26 -28 -7 4 6 3 8 -4 5 -5 -4 -9 -18 -8 -32 2
-13 0 -22 -5 -20 -4 3 -10 -4 -14 -15 -3 -11 -17 -28 -31 -39 -28 -22 -30 -36
-6 -50 14 -9 10 -10 -18 -8 -23 1 -34 -2 -33 -10 2 -7 -3 -10 -11 -7 -19 7
-29 -12 -29 -57 0 -34 -1 -37 -13 -22 -12 17 -13 17 -19 1 -4 -10 -10 -16 -14
-14 -3 2 -4 -15 -3 -39 2 -26 -2 -54 -12 -71 l-15 -29 -1 27 c0 24 -19 52 -21
31 -1 -14 -7 -40 -14 -64 -4 -18 -4 -20 4 -10 7 11 10 7 13 -19 2 -25 10 -38
28 -48 24 -13 24 -13 -11 -9 l-37 5 3 -51 c1 -29 -3 -60 -9 -69 -8 -13 -7 -21
1 -29 7 -7 8 -20 3 -34 -7 -18 -3 -28 16 -46 19 -18 24 -32 24 -75 0 -58 -15
-83 -16 -28 -1 37 -16 60 -33 50 -7 -5 -7 -13 1 -26 10 -16 9 -22 -6 -33 -14
-10 -17 -21 -12 -40 9 -36 -10 -35 -22 1 l-10 27 -1 -30 c-1 -17 4 -36 11 -43
9 -9 8 -12 -5 -12 -14 0 -17 -11 -19 -52 -3 -86 1 -118 16 -134 19 -18 10 -44
-15 -44 -10 0 -19 -5 -19 -11 0 -5 4 -8 9 -5 5 3 8 -8 7 -25 -1 -29 3 -32 44
-45 42 -12 140 -12 161 1 5 4 9 15 9 26 0 10 5 19 10 19 6 0 10 -20 10 -45 0
-32 -4 -43 -13 -39 -20 7 -187 20 -187 14 0 -3 8 -10 19 -17 24 -15 35 -63 12
-56 -9 2 2 -12 24 -32 41 -38 40 -39 -8 -15 -23 11 -30 11 -37 1 -6 -11 -9
-11 -14 0 -3 8 -3 3 0 -11 8 -33 23 -50 43 -50 23 0 62 -45 55 -63 -3 -8 -1
-18 5 -22 6 -3 11 -1 11 4 0 6 11 10 25 9 25 -2 34 -21 15 -33 -5 -3 -10 -15
-10 -26 0 -11 -4 -18 -9 -15 -9 6 -35 -20 -43 -45 -3 -8 0 -26 8 -40 7 -13 13
-27 14 -31 0 -15 -24 -8 -44 11 l-21 20 0 -77 c0 -42 -3 -84 -6 -92 -3 -8 -4
-11 -1 -7 2 4 9 1 16 -7 10 -14 16 -12 56 14 25 16 50 30 56 30 24 0 66 45 97
104 26 49 32 73 32 123 0 41 -3 58 -10 53 -6 -5 -17 -5 -25 0 -13 8 -13 11 1
22 31 25 71 87 63 99 -4 7 -3 9 3 6 6 -4 28 33 52 86 28 62 60 114 97 154 29
34 54 66 54 72 0 6 -20 16 -45 23 -25 7 -45 16 -45 20 0 4 11 3 25 -2 27 -10
33 -2 13 18 -9 9 -9 12 0 12 7 0 15 -7 18 -15 4 -8 11 -15 16 -15 6 0 -4 16
-21 35 -40 46 -39 54 2 22 37 -28 51 -25 55 15 4 30 -10 41 -49 40 -16 0 -31
4 -34 9 -10 15 -28 10 -21 -7 3 -8 3 -34 0 -56 -6 -35 -9 -38 -21 -25 -11 11
-12 20 -5 33 6 11 8 32 5 47 -3 16 0 35 9 45 7 9 21 34 31 55 18 40 30 47 120
72 31 8 57 19 57 23 0 21 62 42 118 40 47 -2 65 2 93 22 54 37 79 62 72 73 -3
6 -1 7 4 4 11 -7 47 26 38 35 -3 3 5 13 17 24 l23 19 -19 -22 c-11 -13 -15
-23 -9 -23 16 0 44 36 36 45 -5 4 -2 5 5 1 13 -8 95 62 87 75 -3 4 9 19 27 34
31 26 49 36 92 49 16 5 16 9 5 23 -13 15 -11 16 19 10 30 -6 44 5 23 17 -15 9
-1 45 25 65 28 22 30 31 9 31 -8 0 -15 7 -15 16 0 8 -4 13 -9 10 -5 -3 -14 1
-21 9 -11 13 -7 14 31 9 36 -5 48 -2 67 16 12 11 22 25 22 31 0 5 16 17 35 25
35 14 45 36 23 50 -6 4 -19 -3 -30 -15 -16 -20 -21 -22 -50 -12 -24 9 -33 8
-40 -1 -5 -8 -8 -3 -8 16 0 21 3 26 13 18 15 -12 89 -1 94 14 5 16 -159 25
-169 10 -6 -8 -8 -8 -8 0 0 13 39 66 57 77 7 4 13 15 13 22 0 9 9 15 22 15 25
0 88 40 88 55 0 6 -11 22 -24 37 -14 14 -22 29 -19 32 4 3 1 6 -5 6 -6 0 -9 6
-6 13 3 8 -2 14 -11 14 -8 0 -15 -4 -15 -9 0 -14 -38 -9 -44 7 -3 10 -19 15
-46 15 -22 0 -40 5 -40 10 0 6 -5 10 -11 10 -6 0 -9 -8 -7 -18 5 -16 2 -17
-18 -8 -15 7 -19 13 -11 18 7 5 3 8 -10 8 -17 0 -23 -6 -23 -22 0 -13 -13 -47
-29 -75 -32 -58 -50 -133 -32 -133 6 0 11 10 12 23 0 12 3 17 5 10 6 -13 32
-6 52 14 16 16 36 17 26 2 -3 -6 -1 -14 5 -18 7 -5 0 -17 -20 -37 -22 -21 -28
-24 -23 -10 6 17 4 18 -17 13 -13 -4 -30 -7 -36 -7 -7 0 -13 -11 -13 -24 0
-27 -19 -47 -21 -22 -1 16 -4 28 -9 44 -1 4 -1 12 0 17 1 6 3 19 5 30 2 11 7
30 10 43 5 14 3 22 -5 22 -7 0 -10 -6 -7 -13 3 -7 -4 -24 -14 -38 -10 -13 -19
-32 -19 -41 0 -25 -19 -22 -30 5 l-9 22 -7 -22 c-3 -13 -11 -24 -18 -24 -6 -1
-16 -2 -22 -3 -22 -2 -45 -37 -53 -78 -9 -43 -9 -43 -10 -8 0 19 6 48 14 64 9
16 14 35 11 42 -3 8 0 11 8 8 7 -3 19 8 27 23 17 34 20 38 58 84 17 20 34 46
39 59 5 13 28 33 53 46 47 26 44 30 -9 15 -25 -8 -35 -6 -48 6 -10 10 -18 12
-22 6 -11 -17 -72 -22 -72 -6 0 7 -7 13 -16 13 -9 0 -12 -5 -8 -12 6 -10 4
-10 -7 0 -7 6 -15 11 -18 11 -4 -1 -14 -3 -24 -6z m-80 -115 c-3 -8 -6 -5 -6
6 -1 11 2 17 5 13 3 -3 4 -12 1 -19z m433 -19 c0 -5 5 -7 11 -4 7 5 9 -3 7
-21 -3 -28 -24 -45 -26 -22 0 7 -4 23 -7 36 -5 14 -3 22 4 22 6 0 11 -5 11
-11z m-280 -19 c0 -5 -5 -10 -11 -10 -5 0 -7 5 -4 10 3 6 8 10 11 10 2 0 4 -4
4 -10z m-57 -37 c-7 -2 -21 -2 -30 0 -10 3 -4 5 12 5 17 0 24 -2 18 -5z m394
-245 c-3 -8 -6 -5 -6 6 -1 11 2 17 5 13 3 -3 4 -12 1 -19z m-747 -38 c0 -5 -4
-10 -10 -10 -5 0 -10 5 -10 10 0 6 5 10 10 10 6 0 10 -4 10 -10z m297 -103 c2
-23 0 -28 -7 -17 -12 18 -13 50 -2 50 4 0 8 -15 9 -33z m-631 -95 c-10 -10
-29 15 -21 28 6 9 10 8 17 -4 6 -10 7 -20 4 -24z m-13 -57 c-3 -9 -8 -14 -10
-11 -3 3 -2 9 2 15 9 16 15 13 8 -4z m77 5 c0 -5 -2 -10 -4 -10 -3 0 -8 5 -11
10 -3 6 -1 10 4 10 6 0 11 -4 11 -10z m388 -57 c11 -16 23 -39 26 -53 5 -17
-2 -11 -23 20 -29 42 -37 60 -27 60 3 0 13 -12 24 -27z m-211 -85 c-3 -8 -6
-5 -6 6 -1 11 2 17 5 13 3 -3 4 -12 1 -19z m17 -113 c4 -56 3 -84 -3 -75 -10
16 -15 73 -13 134 3 61 9 39 16 -59z m-148 -182 c-8 -15 -15 -25 -16 -21 0 12
23 58 27 54 3 -2 -2 -17 -11 -33z m154 3 c0 -2 -7 -9 -15 -16 -13 -11 -14 -10
-9 4 5 14 24 23 24 12z m-370 -86 c0 -5 -2 -10 -4 -10 -3 0 -8 5 -11 10 -3 6
-1 10 4 10 6 0 11 -4 11 -10z m311 -125 l34 -14 -31 -1 c-16 0 -39 7 -50 15
-16 12 -16 14 -3 15 9 0 32 -7 50 -15z m-174 -267 c-3 -8 -6 -5 -6 6 -1 11 2
17 5 13 3 -3 4 -12 1 -19z m-7 -387 c0 -15 -16 -22 -35 -15 -13 5 -14 8 -3 15
18 12 38 11 38 0z"/>
<path d="M4120 5044 c0 -5 9 -15 20 -22 35 -22 20 -51 -56 -106 -18 -14 -18
-15 10 -26 17 -6 32 -7 35 -2 13 19 51 32 81 26 23 -5 35 -2 46 12 14 18 15
17 10 -15 -6 -35 -67 -100 -95 -102 -9 -1 4 -5 29 -9 25 -4 49 -4 54 1 6 5 19
9 30 9 20 0 126 37 136 47 3 3 -19 3 -47 2 -36 -3 -54 0 -58 9 -2 6 0 12 5 12
18 0 -6 39 -60 96 -30 32 -59 59 -65 60 -5 2 -25 6 -42 9 -18 4 -33 4 -33 -1z
m193 -211 c-7 -2 -21 -2 -30 0 -10 3 -4 5 12 5 17 0 24 -2 18 -5z"/>
<path d="M3014 5005 c-10 -8 -14 -14 -9 -15 15 0 40 18 34 24 -3 3 -14 -1 -25
-9z"/>
<path d="M2888 4961 c-16 -9 -28 -22 -28 -28 0 -9 -15 -13 -42 -13 -24 0 -48
-4 -54 -8 -13 -8 -124 -159 -131 -179 -3 -7 -16 -13 -29 -13 -30 0 -31 -25 -7
-89 13 -33 14 -46 5 -49 -7 -2 -9 -9 -5 -15 4 -7 -2 -5 -12 3 -17 14 -18 13
-12 -2 3 -10 1 -20 -5 -24 -7 -5 -8 -2 -3 6 6 10 2 11 -20 6 -36 -9 -75 -35
-75 -51 0 -7 -10 -19 -22 -28 -13 -8 -36 -39 -52 -68 -17 -33 -22 -48 -12 -40
14 12 16 11 16 -5 0 -26 -16 -48 -27 -41 -10 7 -10 -19 2 -80 9 -49 29 -40 64
29 9 18 29 39 46 48 16 8 36 23 43 33 8 10 20 16 27 13 19 -7 27 5 13 22 -10
12 -6 20 25 47 20 18 37 41 37 51 1 18 1 18 15 1 10 -14 18 -16 30 -10 15 9
13 13 -14 36 -17 14 -31 29 -31 33 0 5 5 3 12 -4 19 -19 31 -14 25 11 -5 20
-5 20 7 5 7 -10 18 -18 25 -18 6 0 11 -6 11 -12 0 -7 11 17 24 53 21 62 48
107 89 153 9 11 18 25 18 30 1 6 2 16 4 21 1 6 3 16 3 23 1 7 6 10 12 7 5 -3
12 5 16 19 3 14 11 23 17 20 12 -4 97 96 97 114 0 15 -74 11 -102 -7z"/>
<path d="M4040 4880 c0 -5 7 -10 15 -10 8 0 15 -7 15 -15 0 -8 5 -15 10 -15
15 0 12 16 -6 34 -18 18 -34 21 -34 6z"/>
<path d="M4600 4805 c-11 -14 -10 -20 9 -38 l21 -22 -6 35 c-9 44 -8 44 -24
25z"/>
<path d="M4315 4790 c5 -9 2 -10 -14 -5 -12 4 -21 2 -21 -4 0 -13 37 -15 45
-2 3 5 0 13 -6 17 -8 5 -9 3 -4 -6z"/>
<path d="M4650 4794 c0 -6 6 -17 14 -23 11 -9 15 -8 20 5 9 24 7 31 -4 14 -9
-13 -11 -13 -20 0 -5 8 -10 10 -10 4z"/>
<path d="M4143 4718 c-20 -26 -26 -41 -15 -34 12 7 36 46 29 46 -3 0 -9 -6
-14 -12z"/>
<path d="M4890 4550 c8 -5 20 -10 25 -10 6 0 3 5 -5 10 -8 5 -19 10 -25 10 -5
0 -3 -5 5 -10z"/>
<path d="M4235 4430 c0 -22 3 -40 6 -40 13 0 17 55 6 67 -9 10 -12 3 -12 -27z"/>
<path d="M4198 4424 c3 -24 1 -34 -6 -30 -6 3 -13 2 -16 -3 -7 -10 -40 -7 -81
9 -49 19 -49 10 -1 -20 43 -28 47 -33 41 -60 -10 -45 25 -40 59 9 21 30 27 48
24 82 -2 23 -8 44 -14 46 -6 2 -8 -10 -6 -33z"/>
<path d="M4014 4412 c-6 -4 -19 -22 -28 -39 -11 -22 -36 -43 -74 -63 -51 -27
-53 -30 -22 -24 99 17 107 21 113 65 3 22 13 47 24 54 18 15 7 21 -13 7z"/>
<path d="M4627 4413 c-4 -3 -7 -13 -7 -21 0 -18 13 -7 16 13 2 17 1 18 -9 8z"/>
<path d="M2176 4314 c-24 -43 -35 -76 -20 -61 9 8 54 107 49 107 -2 0 -15 -21
-29 -46z"/>
<path d="M4045 4350 c-3 -5 -1 -10 4 -10 6 0 11 5 11 10 0 6 -2 10 -4 10 -3 0
-8 -4 -11 -10z"/>
<path d="M2516 4321 c-17 -6 -17 -8 -3 -14 8 -3 21 1 27 9 13 15 6 17 -24 5z"/>
<path d="M2197 4273 c-4 -3 -7 -16 -6 -27 0 -19 1 -19 10 3 10 24 8 36 -4 24z"/>
<path d="M2483 4260 c-18 -9 -30 -20 -27 -23 7 -6 36 3 44 13 3 4 17 10 33 14
46 11 32 -19 -18 -40 -25 -10 -45 -22 -45 -26 0 -19 54 0 89 31 20 17 22 23
11 36 -16 19 -46 17 -87 -5z"/>
<path d="M3950 4241 c0 -5 13 -11 30 -13 24 -4 27 -2 19 9 -13 15 -49 18 -49
4z"/>
<path d="M3420 4105 c7 -8 18 -15 24 -15 6 0 5 4 -3 9 -11 7 -10 10 5 14 13 3
10 5 -10 6 -24 1 -27 -1 -16 -14z"/>
<path d="M3795 4084 c-33 -19 -55 -34 -50 -34 14 0 102 29 91 29 -6 1 -1 7 10
15 39 29 7 22 -51 -10z"/>
<path d="M3364 4075 c-4 -10 -14 -13 -29 -9 -13 3 -26 1 -29 -5 -4 -6 -18 -11
-31 -11 -29 0 -41 -16 -19 -24 30 -11 64 -6 64 9 0 12 8 14 39 9 42 -7 61 7
41 31 -16 19 -29 19 -36 0z"/>
<path d="M2460 4028 c0 -14 39 -52 46 -46 2 2 0 15 -4 29 -7 25 -42 39 -42 17z"/>
<path d="M2376 4011 c-6 -17 -10 -20 -16 -11 -6 9 -11 7 -19 -8 -9 -18 -7 -24
19 -42 17 -12 30 -17 30 -12 0 6 -6 12 -12 15 -10 3 -10 7 0 20 8 9 12 26 10
39 l-4 23 -8 -24z"/>
<path d="M2530 3999 c0 -11 5 -17 10 -14 6 3 10 13 10 21 0 8 -4 14 -10 14 -5
0 -10 -9 -10 -21z"/>
<path d="M3336 4001 c-3 -5 0 -11 8 -14 8 -3 17 1 20 9 6 15 -19 20 -28 5z"/>
<path d="M3278 3993 c7 -3 16 -2 19 1 4 3 -2 6 -13 5 -11 0 -14 -3 -6 -6z"/>
<path d="M3204 3959 c-3 -5 -10 -7 -15 -4 -5 4 -9 -1 -9 -9 0 -10 6 -13 15
-10 8 4 15 10 15 14 0 4 11 5 25 2 14 -2 25 0 25 4 0 12 -49 14 -56 3z"/>
<path d="M2514 3944 c-18 -14 -18 -15 4 -4 12 6 22 13 22 15 0 8 -5 6 -26 -11z"/>
<path d="M2440 3911 c0 -12 39 -35 46 -28 3 2 -7 12 -21 21 -14 9 -25 12 -25
7z"/>
<path d="M3540 3893 c0 -5 5 -15 10 -23 8 -12 10 -11 10 8 0 12 -4 22 -10 22
-5 0 -10 -3 -10 -7z"/>
<path d="M2270 3838 c0 -10 -4 -18 -10 -18 -16 0 -12 -24 14 -81 26 -56 41
-139 26 -139 -5 0 -11 8 -13 18 -3 9 -6 -3 -7 -28 l-2 -45 -12 45 -12 45 -16
-30 c-15 -30 -14 -110 2 -100 5 3 6 -13 3 -36 -6 -41 4 -58 34 -59 8 0 7 9 -5
30 -12 22 -14 32 -6 38 7 4 14 18 16 32 5 26 8 22 23 -26 5 -15 7 -15 24 0 11
10 27 16 37 14 25 -4 40 62 17 79 -8 6 -12 17 -8 23 3 6 1 9 -6 8 -7 -2 -15 8
-19 22 -4 14 -11 24 -16 23 -5 -1 -8 18 -6 41 3 29 -1 46 -12 55 -9 8 -16 21
-16 31 0 10 -7 31 -15 46 -10 20 -15 23 -15 12z"/>
<path d="M2051 3794 c0 -11 3 -14 6 -6 3 7 2 16 -1 19 -3 4 -6 -2 -5 -13z"/>
<path d="M2688 3713 c7 -3 16 -2 19 1 4 3 -2 6 -13 5 -11 0 -14 -3 -6 -6z"/>
<path d="M1996 3648 c-11 -18 -28 -43 -38 -55 -25 -26 -17 -73 8 -49 8 8 14
19 14 25 0 6 4 11 8 11 5 0 15 23 24 50 18 57 11 65 -16 18z"/>
<path d="M2212 3650 c0 -14 2 -19 5 -12 2 6 2 18 0 25 -3 6 -5 1 -5 -13z"/>
<path d="M3261 3607 c-5 -13 -32 -63 -59 -110 -32 -56 -54 -109 -62 -149 -6
-35 -14 -71 -15 -80 -3 -13 3 -18 21 -18 25 0 54 20 54 38 0 5 10 17 23 26
l22 17 -24 -7 c-38 -10 -21 18 28 45 23 13 54 41 68 62 14 21 29 39 33 39 13
0 29 48 23 71 -10 42 -43 68 -43 34 0 -8 -6 -15 -14 -15 -8 0 -17 -6 -20 -12
-3 -7 -4 7 -3 31 2 50 -17 67 -32 28z"/>
<path d="M1987 3534 c-18 -24 -20 -56 -4 -54 5 1 15 -7 23 -17 12 -16 13 -15
13 17 -1 19 -4 45 -7 57 l-7 21 -18 -24z"/>
<path d="M2330 3430 c0 -13 11 -13 30 0 12 8 11 10 -7 10 -13 0 -23 -4 -23
-10z"/>
<path d="M2421 3251 c-8 -6 -9 -11 -3 -15 6 -3 14 -1 17 5 9 14 2 20 -14 10z"/>
<path d="M2070 3193 c0 -5 5 -15 10 -23 8 -12 10 -11 10 8 0 12 -4 22 -10 22
-5 0 -10 -3 -10 -7z"/>
<path d="M3253 3157 c0 -7 9 -14 19 -14 16 -2 17 1 8 13 -15 18 -27 18 -27 1z"/>
<path d="M2135 3130 c-3 -5 -1 -10 4 -10 6 0 11 5 11 10 0 6 -2 10 -4 10 -3 0
-8 -4 -11 -10z"/>
<path d="M3313 2985 c0 -22 2 -30 4 -17 2 12 2 30 0 40 -3 9 -5 -1 -4 -23z"/>
<path d="M2860 2905 c-10 -12 -10 -18 0 -30 25 -30 57 -12 45 25 -8 24 -28 26
-45 5z"/>
<path d="M4955 2870 c3 -5 11 -10 16 -10 6 0 7 5 4 10 -3 6 -11 10 -16 10 -6
0 -7 -4 -4 -10z"/>
<path d="M4883 2598 c-6 -7 -19 -29 -28 -48 -16 -31 -16 -33 -2 -21 18 14 50
72 43 78 -2 2 -8 -2 -13 -9z"/>
<path d="M3350 2470 c0 -5 5 -10 10 -10 6 0 10 -8 10 -17 0 -13 3 -14 12 -5 8
8 8 15 -2 27 -14 17 -30 20 -30 5z"/>
<path d="M4000 2360 c0 -5 5 -10 11 -10 5 0 7 5 4 10 -3 6 -8 10 -11 10 -2 0
-4 -4 -4 -10z"/>
<path d="M4460 2083 c0 -5 -10 -15 -22 -21 -17 -8 -18 -11 -7 -11 19 -1 45 26
35 36 -3 3 -6 2 -6 -4z"/>
</g>
</svg>
